<svg width="800" height="800" viewBox="0 0 800 800" fill="none" xmlns="http://www.w3.org/2000/svg"><path d="M175 669c112.8 7.2 155.333-47.667 162.5-76h-132c2 47.5-19 61.5-30.5 76" fill="#87CBE9"/><mask id="a" style="mask-type:alpha" maskUnits="userSpaceOnUse" x="125" y="144" width="568" height="449"><rect x="125" y="144" width="568" height="449" rx="85" fill="#87CBE9"/></mask><g mask="url(#a)"><rect x="125" y="144" width="568" height="449" rx="85" fill="#87CBE9"/><path d="m491.098 128.808 217.094 217.094" stroke="#A2DCEF" stroke-width="26"/><path d="m455.738 128.789 252.435 251.425" stroke="#B8E9FB" stroke-width="26"/><path d="m406.707 121.25 314.02 312.961" stroke="#C7EEFC" stroke-width="36"/><path d="M380.451 617.062 115.809 352.419" stroke="#A2DCEF" stroke-width="26"/><path stroke="#B8E9FB" stroke-width="32" d="m430.245 626.781-325-325"/><path stroke="#C7EEFC" stroke-width="58" d="M494.497 628.38 97.43 231.447"/><circle cx="266" cy="369" r="43" fill="#373737"/><circle cx="554" cy="369" r="43" fill="#373737"/><path d="M360 408c0 14.665 9.202 44.194 46.011 44.985 36.808.791 46.663-29.66 46.989-44.985" stroke="#373737" stroke-width="15" stroke-linecap="round"/></g></svg>
